<svg width="151" height="150" viewBox="0 0 151 150" fill="none" xmlns="http://www.w3.org/2000/svg">
<rect width="151" height="150" fill="#9044AB"/>
<path d="M50.0335 31.4184C49.1396 31.7536 48.9907 32.0516 48.9907 33.2806C48.9907 34.2862 49.2886 35.0683 49.9218 35.8505C50.8156 36.8933 50.8529 37.1912 50.8529 41.6233V46.2788L48.581 48.3645C47.3147 49.5563 46.0856 50.4874 45.7877 50.4874C45.527 50.4874 45.1918 50.5991 45.08 50.7481C44.9311 50.8971 44.4841 50.7853 44.0744 50.5619C43.4413 50.1522 43.1806 50.3012 41.9515 51.7537C41.0949 52.7593 40.4618 53.2435 40.2755 52.9827C40.1266 52.7593 39.7914 52.6475 39.4934 52.7593C39.121 52.9083 39.0465 52.7593 39.1955 52.2006C39.3072 51.7537 39.5679 51.4185 39.7541 51.4185C39.9776 51.4185 40.0521 51.195 39.9403 50.8971C39.8286 50.6364 39.8659 49.7425 40.0521 48.9604C40.2383 48.1038 40.2383 47.2844 40.0148 46.8747C39.7541 46.3533 39.7541 45.9809 40.0521 45.6457C40.3873 45.236 40.3873 44.789 40.0893 43.9324C39.5679 42.4054 39.7169 42.2937 40.9087 43.262C41.4674 43.6717 41.9143 43.8579 41.9143 43.6345C41.9143 42.7779 42.7336 43.262 43.2551 44.4166L43.8137 45.6457L43.553 43.9697C43.4413 43.0386 43.1433 42.0702 42.9571 41.8095C42.7336 41.586 42.6964 41.3626 42.8826 41.3626C43.0688 41.3626 42.9571 41.1764 42.6592 40.9901C42.3612 40.8039 41.0949 40.6549 39.8659 40.6549C37.4077 40.6922 32.4543 40.0963 31.2997 39.6866C30.7038 39.4259 30.6293 39.4631 31.0018 39.8728C31.4114 40.2825 31.1135 40.5805 29.512 41.3253C27.985 42.1075 27.5008 42.5544 27.1656 43.5972C26.607 45.3849 25.1917 46.0553 23.2922 45.4967C21.5045 44.9753 21.1321 44.4911 20.3499 41.884C19.6795 39.5749 18.6367 38.5693 19.0464 40.6177C19.3071 41.735 19.2699 41.7723 18.3015 41.3253C17.4821 40.9529 17.2214 40.9529 16.7373 41.4371C16.2158 41.9585 16.2531 42.033 17.0725 42.2564C17.5939 42.3682 18.078 42.8151 18.1898 43.2248C18.3388 43.8579 18.1898 43.9697 17.0352 43.9697C15.8434 44.0069 15.7689 44.0442 16.3648 44.3794C16.9235 44.7146 16.9607 44.8635 16.551 45.1242C16.1786 45.3477 16.3276 45.4594 17.0352 45.4594C17.5566 45.4594 18.3388 45.5712 18.7112 45.7201C19.2326 45.9436 19.1209 46.0553 18.078 46.2416L16.7745 46.465L18.2643 46.5395L19.754 46.5768L18.8229 47.3589L17.8918 48.1038L18.8229 47.8431C19.3443 47.6941 19.9403 47.5079 20.201 47.4334C20.5362 47.2844 20.5734 47.6568 20.4244 48.6997L20.201 50.1149L21.3183 49.0721C22.6591 47.8431 22.9943 47.8058 22.6963 48.9604C22.5846 49.4818 22.6591 50.1894 22.8825 50.5619C23.106 50.9716 23.2922 51.046 23.2922 50.7481C23.2922 50.4874 23.4412 50.3757 23.6647 50.4874C23.8881 50.6364 23.9626 50.3012 23.8136 49.668C23.5529 48.3645 24.8192 46.5768 26.0483 46.5768C26.7187 46.5768 26.8677 46.8002 26.9421 47.9175C27.0166 48.6624 27.2773 49.6308 27.5753 50.0777C27.8733 50.5619 28.0222 51.0088 27.9105 51.1578C27.7988 51.2695 28.0595 51.9027 28.5064 52.5358C29.0278 53.2807 29.2513 54.0256 29.1396 54.6215C28.9906 55.3664 29.1023 55.5153 29.5865 55.2919C31.188 54.6215 34.093 56.223 33.6088 57.5265C33.3109 58.2342 31.2625 58.3459 31.039 57.6755C30.89 57.3031 30.7038 57.3403 30.2569 57.75C29.9589 58.0479 28.9906 58.7183 28.1712 59.2398C26.5325 60.2081 26.2345 60.8785 27.2773 61.2509C27.7243 61.4372 27.7988 61.5861 27.4636 61.9213C27.2029 62.182 27.0166 62.6662 27.0166 63.0387C27.0166 63.4111 26.309 64.4912 25.4896 65.385C24.0371 66.9493 23.8881 67.0238 23.255 66.4651C22.5846 65.8692 22.0259 64.6029 21.6535 62.9269C21.43 61.9213 20.7596 61.5489 18.4877 61.2509C16.8117 61.0275 16.2158 61.8468 16.4021 64.0442C16.5883 65.9809 16.7745 66.2044 18.227 66.3906C19.0836 66.4651 19.4188 66.8003 19.9403 68.1411C20.7224 70.1895 22.5846 71.9028 23.9626 71.9028C24.782 71.9028 25.6386 71.2696 27.7243 69.1094C29.214 67.5824 30.7038 66.2789 31.0018 66.2416C32.1563 66.0182 33.0129 68.2528 33.1992 71.9772C33.3109 73.8767 33.5716 75.8506 33.7206 76.372C33.9068 76.8935 34.1675 78.6439 34.242 80.2827C34.4655 83.3367 34.4655 83.225 31.4487 98.2343C31.039 100.32 30.5921 103.933 30.5176 106.242C30.2569 111.754 30.2569 111.791 28.3202 114.175C26.3835 116.521 26.458 117.452 28.5809 117.899C29.5865 118.123 29.9217 118.011 30.6293 117.192C31.1135 116.633 31.4859 115.963 31.4859 115.702C31.4859 115.441 32.0073 114.771 32.6033 114.175C33.5716 113.281 33.7206 112.834 33.7206 111.233C33.7206 109.259 34.7634 104.715 35.5083 103.3C35.769 102.853 35.9552 101.996 35.9552 101.363C35.9552 100.208 38.3761 95.3665 38.972 95.3665C39.1582 95.3665 39.4189 94.9196 39.5307 94.361C39.6796 93.765 40.6107 91.6049 41.5791 89.5192C44.0744 84.2306 44.0744 84.2306 48.3948 90.6738C51.7467 95.6273 52.7151 97.5267 52.7151 99.1654C52.7151 99.9476 53.0503 101.4 53.46 102.406C53.8696 103.449 54.3911 105.832 54.6518 107.732C55.0242 110.786 55.2104 111.344 56.216 112.35C56.8492 113.02 57.7803 114.063 58.2644 114.733C58.9721 115.702 59.3073 115.851 60.0894 115.665C61.095 115.404 61.9889 114.51 62.0261 113.691C62.0261 113.43 61.2812 112.424 60.3874 111.456C59.4935 110.488 58.5996 109.333 58.3389 108.886C58.0782 108.402 57.9292 106.093 57.9292 103.002C57.9292 95.739 56.1415 88.1412 53.162 82.6291C51.8212 80.2082 51.8212 80.1337 52.4916 79.3888C52.9013 78.9419 54.0931 78.1598 55.2104 77.6383L57.2216 76.7072L55.7691 74.0257C54.987 72.5359 54.1303 71.0089 53.9069 70.5992C53.6834 70.1895 52.5289 68.1039 51.3743 65.9437C50.2197 63.7835 48.7672 61.4372 48.1713 60.655C46.8305 58.9418 46.4208 57.1168 47.2774 56.7816C47.6126 56.6699 47.8733 56.372 47.8733 56.1857C47.8733 55.9623 49.0279 54.547 50.4432 53.0572C51.8957 51.5675 53.311 49.817 53.6462 49.1466C54.7635 47.0237 55.0242 43.5972 54.3538 39.6121C54.0186 37.4892 53.8696 35.2546 54.0186 34.249C54.2421 32.7592 54.1303 32.3495 53.4972 31.7164C52.6406 30.8597 51.635 30.7853 50.0335 31.4184Z" fill="#F2567B"/>
<path d="M121.612 33.0563C121.183 33.2956 120.531 33.5692 120.154 33.6376C119.759 33.706 119.314 33.8257 119.142 33.877C118.919 33.9796 118.85 33.9283 118.885 33.6205C118.919 33.4153 118.799 33.1589 118.645 33.0563C118.422 32.9024 118.216 33.005 117.53 33.6205C117.084 34.0309 116.484 34.7319 116.192 35.1764C115.66 35.9971 110.463 40.6648 109.074 41.5539C108.645 41.8275 107.633 42.6995 106.827 43.486C106.004 44.2896 105.078 45.059 104.769 45.2129C104.443 45.3667 104.1 45.6745 103.997 45.8968C103.671 46.5465 103.019 47.1449 102.11 47.6066C101.562 47.8972 100.91 48.4614 100.361 49.1112C99.8807 49.6925 99.1432 50.4448 98.7144 50.7868C97.9769 51.4023 97.9255 51.4194 97.531 51.1629C97.0679 50.838 96.7248 50.2054 96.7248 49.607C96.7248 49.1283 97.6339 48.0682 97.9083 48.2221C98.097 48.3418 98.1484 48.1708 98.1141 47.6407C98.1141 47.504 98.217 47.6066 98.3542 47.8972L98.5944 48.4102L98.6115 47.9656C98.6115 47.6749 98.8345 47.2817 99.2118 46.9055C99.6063 46.5123 99.8121 46.1532 99.8121 45.8455C99.8121 45.3496 99.3319 44.2212 99.1261 44.2212C98.9202 44.2212 98.8002 43.3834 98.9889 43.3321C99.0918 43.2979 98.9202 42.8534 98.6115 42.3404C98.1141 41.5026 98.0798 41.3487 98.2513 40.9042C98.4057 40.4767 98.3885 40.34 98.1313 40.0493C97.8568 39.7415 97.8568 39.7244 98.1313 39.827C98.4057 39.9125 98.4057 39.8954 98.217 39.5706C97.9426 39.0747 97.6339 38.7499 97.4624 38.7499C97.3938 38.7499 97.2222 38.5789 97.085 38.3566L96.8449 37.9805L97.2394 38.3224L97.6339 38.6644L97.4281 38.2882C97.1708 37.7753 96.296 37.1427 95.2498 36.681C94.5466 36.3562 94.0663 36.2878 92.3512 36.2707C90.6017 36.2365 90.1901 36.2878 89.6069 36.5784C88.938 36.9033 87.6688 37.895 87.9261 37.895C87.9947 37.895 87.9604 37.9805 87.8403 38.1001C87.6002 38.3395 87.5659 38.8183 87.806 38.6644C87.9089 38.6131 87.9261 38.6815 87.8746 38.8183C87.8231 38.9721 87.7202 39.0576 87.6516 39.0405C87.6002 39.0063 87.4115 39.1089 87.2571 39.2799C87.0685 39.468 87.0342 39.6048 87.1714 39.6561C87.2914 39.6902 87.2571 39.8441 87.0685 40.1177C86.7083 40.6306 86.674 40.9897 87.0342 40.528C87.1714 40.3571 87.2914 40.2887 87.2914 40.4084C87.2914 40.5109 87.1885 40.7161 87.0856 40.8358C86.4167 41.5197 86.2452 43.1611 86.6911 44.4605C86.8455 44.9051 86.8798 45.2129 86.7769 45.3154C86.5196 45.5719 86.5711 46.7346 86.8627 47.2988C87.0513 47.6749 87.2571 47.8117 87.5659 47.8117C87.8918 47.8117 87.9947 47.8801 87.9089 48.0682C87.8574 48.205 87.9089 48.3076 88.0118 48.2734C88.1319 48.2563 88.2519 48.3931 88.2862 48.564C88.3205 48.7521 88.4578 48.9915 88.5778 49.1283C88.6979 49.2479 88.8351 49.4189 88.8694 49.5044C88.8865 49.5899 89.0409 49.6925 89.1781 49.7267C89.3153 49.7609 89.7956 50.5132 90.2415 51.4023C90.859 52.6675 90.9962 53.0779 90.8418 53.283C90.7389 53.4198 90.636 53.5737 90.6189 53.5908C90.5846 53.625 90.0872 53.3856 89.4697 53.0437C88.6979 52.6162 87.7031 52.2743 86.2109 51.9323C84.8045 51.6074 83.844 51.2826 83.4152 50.9919C83.055 50.7526 82.6091 50.5474 82.4204 50.5474C82.2317 50.5474 81.4256 50.2054 80.6195 49.7951C79.7962 49.3847 78.6642 48.8547 78.0639 48.6153C77.4807 48.376 76.4688 47.8288 75.8342 47.4185C75.1995 46.991 74.3763 46.4952 73.9989 46.29C73.107 45.8113 69.2136 43.3492 68.3904 42.7508C67.8587 42.3575 67.7386 42.1694 67.7386 41.6907C67.7386 41.0923 67.5328 40.5964 67.0525 40.0322C66.7266 39.639 66.0234 37.8437 66.0234 37.3649C66.0234 36.9717 65.6289 36.9375 65.3202 37.3136C65.1487 37.5359 65.1315 37.8095 65.3031 38.767C65.5775 40.3742 65.5603 40.5964 65.1658 40.8016C64.7199 41.041 63.9309 40.7845 62.5931 39.998C61.6669 39.4338 61.1524 39.3141 60.9809 39.5706C60.8436 39.7928 61.0495 39.998 62.7475 41.2633C62.7989 41.2974 62.7475 41.4 62.6274 41.5197C62.4902 41.6565 62.0614 41.6223 60.9637 41.4C59.9174 41.1778 59.4372 41.1436 59.3171 41.2633C59.0084 41.571 59.2657 41.7762 60.5692 42.2036L61.8213 42.5969L60.7064 42.6482C59.2314 42.6995 58.8026 42.8021 58.9227 43.0927C58.9741 43.2295 59.4372 43.3834 60.0718 43.4518C61.0323 43.5886 61.0838 43.6057 60.5349 43.6911C60.1576 43.7595 59.9346 43.8963 59.9346 44.0502C59.9346 44.2554 60.2948 44.3238 61.7355 44.4093C62.7303 44.4776 64.2054 44.6315 65.0286 44.7683C66.7609 45.0761 66.8124 45.1103 69.9683 48.1708C72.3352 50.4619 73.6902 51.5049 75.2167 52.2059C75.7827 52.4452 76.4688 52.8385 76.7432 53.0437C77.0348 53.2659 77.8924 53.7276 78.6299 54.0524C79.3845 54.3944 80.1564 54.856 80.345 55.0954C80.5337 55.3177 81.3055 55.7793 82.043 56.1042C82.9349 56.4803 83.621 56.9078 84.0155 57.3352C84.3585 57.7114 84.9931 58.2585 85.4562 58.5663C85.9022 58.8569 86.2623 59.216 86.2623 59.3357C86.2623 59.6092 87.6859 61.7978 88.8179 63.2853C89.281 63.8837 89.7098 64.636 89.7784 64.9438C89.847 65.2515 90.3959 66.6023 90.9962 67.9188C91.5965 69.2524 92.0939 70.3809 92.0939 70.4493C92.0939 70.5006 92.7285 71.9539 93.5003 73.6808C94.255 75.3906 94.9925 77.1687 95.1126 77.6475C95.2498 78.1091 95.4213 78.5195 95.5242 78.5537C95.6271 78.5879 95.6957 79.4086 95.6957 80.6225C95.6957 82.0074 95.7815 82.9307 95.9873 83.6317C96.296 84.6918 96.3818 86.5726 96.176 87.6839C96.0731 88.2482 96.1074 88.3166 96.4333 88.3678C96.742 88.4191 96.8449 88.6585 97.1879 90.2999C97.4109 91.3258 97.6167 92.7107 97.651 93.3433C97.6853 93.993 97.8054 94.6086 97.9083 94.7111C98.0112 94.8137 98.5772 94.9334 99.1775 94.9676L100.258 95.036L100.464 96.951C100.721 99.225 101.081 101.072 101.562 102.354C102.642 105.295 103.088 106.765 103.157 107.569C103.26 108.543 103.242 108.578 102.196 109.364C101.887 109.603 101.493 109.928 101.321 110.082C101.15 110.253 100.412 110.698 99.6578 111.074C98.9031 111.45 98.217 111.894 98.1313 112.048C98.0455 112.219 97.9769 112.698 97.9941 113.126C98.0112 113.758 98.0798 113.929 98.44 114.117C99.0746 114.442 101.682 114.288 103.054 113.827C103.911 113.553 104.563 113.467 106.072 113.467C107.513 113.467 108.045 113.399 108.199 113.228C108.457 112.92 108.011 109.757 107.616 109.073C106.33 106.851 106.467 107.535 106.33 102.439C106.21 97.8743 106.21 97.8059 105.678 96.1816C105.095 94.4205 105.009 93.805 105.352 93.805C105.455 93.805 105.781 93.6169 106.055 93.4117L106.553 93.0014L106.278 91.9071C106.124 91.3087 105.884 90.0434 105.747 89.086C105.592 88.1285 105.283 86.9145 105.026 86.3503C104.58 85.3415 104.58 85.3244 104.786 83.5121C104.906 82.4862 104.958 81.3406 104.906 80.9474C104.82 80.3489 105.078 79.1179 105.386 78.6221C105.404 78.605 105.729 78.6905 106.107 78.8272C106.982 79.135 109.468 79.4428 111.132 79.4428C113.876 79.4428 117.41 80.4173 120.72 82.0929C122.144 82.7939 122.418 82.7426 122.967 81.6655L123.31 80.9816L124.991 81.8023C128.027 83.3069 129.536 83.7685 133.687 84.4011C136.225 84.7944 137.769 85.3586 138.095 86.0254C138.335 86.5213 141.199 88.5046 141.696 88.5046C142.314 88.5046 142.794 87.6497 143.943 84.5721C144.269 83.683 144.818 82.3323 145.161 81.58C145.487 80.8277 145.881 79.7847 146.019 79.2718C146.31 78.1604 146.207 78.0065 144.99 77.5449C144.269 77.2713 144.132 77.2542 143.686 77.4936C143.412 77.6304 142.931 78.1091 142.605 78.5708C142.245 79.0666 141.696 79.5453 141.216 79.8018C140.77 80.0241 140.05 80.537 139.604 80.9303L138.798 81.6484L137.854 81.4261C137.34 81.3064 136.465 80.9474 135.899 80.6396C132.332 78.6392 130.033 77.6817 127.306 77.032C125.145 76.519 124.854 76.331 124.854 75.5103C124.854 74.7579 124.51 74.4331 123.499 74.245C123.19 74.1937 122.315 73.715 121.56 73.1849C120.806 72.6549 119.965 72.1591 119.691 72.0565C119.416 71.971 119.193 71.7829 119.193 71.6632C119.193 71.3213 119.005 71.2529 117.53 70.9622C116.792 70.8254 115.403 70.4151 114.442 70.0389C112.882 69.4234 112.556 69.355 111.167 69.355C109.64 69.355 109.623 69.355 109.434 68.8763C109.314 68.6027 108.714 67.9017 108.096 67.2862C106.21 65.4567 105.832 64.6702 104.958 60.7719C104.632 59.3186 104.615 58.9424 104.769 57.9166C104.872 57.2497 104.958 56.0529 104.958 55.2151C104.975 53.9157 105.026 53.6079 105.386 53.0266C105.627 52.6504 105.815 52.223 105.815 52.0691C105.815 51.9152 106.433 51.1287 107.187 50.308C107.942 49.5044 108.559 48.7008 108.559 48.5469C108.577 48.2563 111.424 45.23 112.967 43.8621C113.362 43.5202 114.237 42.3917 114.923 41.3829C117.513 37.5188 117.856 37.1427 119.039 36.6981C119.622 36.4759 120.325 36.0997 120.6 35.8774C121.08 35.4671 121.749 35.2619 123.276 35.0396C123.824 34.9712 123.996 34.8687 123.996 34.6293C123.996 34.4412 124.099 34.3044 124.219 34.3044C124.545 34.3044 125.076 33.6718 124.939 33.4666C124.785 33.1931 124.167 33.2444 123.087 33.6034C122.058 33.9625 121.766 33.8086 122.624 33.364C122.915 33.2102 123.138 32.9879 123.138 32.8511C123.138 32.4579 122.452 32.5433 121.612 33.0563ZM96.399 37.8266L96.8106 38.2882L96.3475 37.9805C96.0731 37.8266 95.8673 37.6214 95.8673 37.5359C95.8673 37.2965 95.953 37.3478 96.399 37.8266ZM86.7254 43.2295C86.674 43.3663 86.6225 43.315 86.6225 43.1269C86.6054 42.9388 86.6568 42.8363 86.7083 42.9046C86.7597 42.9559 86.7769 43.1098 86.7254 43.2295ZM87.017 44.1186C86.9656 44.3751 86.8798 44.546 86.8284 44.5118C86.794 44.4605 86.8112 44.2212 86.8798 43.9818C86.9313 43.7253 87.017 43.5544 87.0685 43.5886C87.1028 43.6399 87.0856 43.8792 87.017 44.1186Z" fill="#9DD6FF"/>
<path d="M98.2686 41.1779C98.2686 41.3146 98.3886 41.5369 98.5258 41.6566C98.8517 41.9302 98.8517 41.6737 98.5258 41.2462C98.32 40.9727 98.2686 40.9556 98.2686 41.1779Z" fill="#3238D1"/>
</svg>
