<svg height="512" viewBox="0 0 60 60" width="512" xmlns="http://www.w3.org/2000/svg"><g id="011---Astronaut" fill="none"><g id="Layer_4" transform="translate(0 1)"><path id="Shape" d="m51.56 53.32-1.33 4c-.1375721.4073117-.5200841.6811098-.95.68h-38.56c-.4481524.0233915-.85700608-.2546291-1-.68l-1.33-4c-.10663936-.314183-.05050397-.6608011.14984844-.9252663.20035242-.2644652.51883146-.4123381.85015156-.3947337h41.22c.3226006-.0008335.6257891.154014.8142345.4158539.1884454.26184.2389991.598508.1357655.9041461z" fill="#7facfa"/><path id="Shape" d="m48.56 53.32-1.33 4c-.1375721.4073117-.5200841.6811098-.95.68h-35.56c-.4481524.0233915-.85700608-.2546291-1-.68l-1.33-4c-.10663936-.314183-.05050397-.6608011.14984844-.9252663.20035242-.2644652.51883146-.4123381.85015156-.3947337h38.22c.3226006-.0008335.6257891.154014.8142345.4158539.1884454.26184.2389991.598508.1357655.9041461z" fill="#a4c2f7"/><path id="Shape" d="m56.8 42.1c-1.5509943 3.7383592-3.8673296 7.1106709-6.8 9.9h-39.93c-16.07-15.2-10.36-42.79 13.01-49.17 6.9231998-1.71817097 14.2375113-.80967149 20.53 2.55.2886278.14985053.4863603.4306948.5301228.75294628.0437626.32225148-.0719113.64565712-.3101228.86705372-3.9 3.66-6.83 8.6-6.83 14l-.12.17c-2.7619737-1.933357-6.2098396-2.6156715-9.5-1.88-4.2450882 1.0003975-7.6361933 4.1857501-8.9 8.36-1.9329966 6.3512746 1.6487254 13.0670034 8 15s13.0670034-1.6487254 15-8c3.2229816 2.5901065 6.9795999 4.4342646 11 5.4 1.1799285.3075754 2.3748245.5545651 3.58.74.2821659.058692.5252898.2362697.6670402.4872063.1417504.2509365.1683429.5508298.0729598.8227937z" fill="#cad9fc"/><path id="Shape" d="m53.8 42.1c-1.5509943 3.7383592-3.8673296 7.1106709-6.8 9.9h-36.93c-16.07-15.19-10.3-42.81 13.01-49.17 1.7726321-.48185836 3.5943648-.76031842 5.43-.83 4.2377299.16019372 8.3801541 1.30363975 12.1 3.34.3045559.14591184.5148947.43568156.5592628.77045915s-.0832287.66933394-.3392628.88954085c-3.59 3.36-6.36 7.83-6.77 12.71-6.0736424-2.1771385-12.781657.8380289-15.1853553 6.8256243-2.4036982 5.9875954.3574226 12.8041125 6.2505233 15.4309792 5.8931006 2.6268667 12.808503.123688 15.654832-5.6666035 2.6774049 1.6748087 5.5989804 2.923057 8.66 3.7 1.1799285.3075754 2.3748245.5545651 3.58.74.3020997.0453936.5668792.2263861.7188647.4913864.1519855.2650004.1745035.5849369.0611353.8686136z" fill="#e8edfc"/><path id="Shape" d="m52.44 40c-4.0204001-.9657354-7.7770184-2.8098935-11-5.4 1.5691392-4.9942631-.2803406-10.4293862-4.57-13.43l.13-.17c.0564863-3.2936941 1.0521755-6.5027968 2.87-9.25l5.13 4.37c.6190493.5321224.8525749 1.3870636.59 2.16-.4290495.9221393-.0977103 2.0194313.77 2.55l5 3.13c.3156717.2008444.4928192.5611062.4591352.9337354s-.272564.6952839-.6191352.8362646l-2.31.92.11.35s1 6 3 9c.728109 1.2036321.8890661 2.6668787.44 4z" fill="#a4c2f7"/><path id="Shape" d="m55.23 40.62c-2.29-.4-2.59-.61-2.79-.61.4635959-1.3348471.3020147-2.8074393-.44-4.01-2-3-3-9-3-9l-.14-.35 2.31-.92c.3270761-.1484306.5494243-.460872.5825021-.8185258.0330778-.3576539-.1281964-.7055747-.4225021-.9114742l-5-3.13c-.8677103-.5305687-1.1990495-1.6278607-.77-2.55.2879359-.7784895.0650992-1.6539194-.56-2.2l-5.11-4.37c.9731045-1.5374272 2.117048-2.95980855 3.41-4.24 11.6114699 6.5728324 16.6806666 20.641659 11.93 33.11z" fill="#e8edfc"/><path id="Shape" d="m52.58 39.66c.2764247-1.2494497.0691807-2.557231-.58-3.66-2-3-3-9-3-9l-.14-.35 2.31-.92c.3270761-.1484306.5494243-.460872.5825021-.8185258.0330778-.3576539-.1281964-.7055747-.4225021-.9114742l-5-3.13c-.8677103-.5305687-1.1990495-1.6278607-.77-2.55.2879359-.7784895.0650992-1.6539194-.56-2.2l-5.11-4.37c.6883667-1.0848554 1.4642852-2.1116096 2.32-3.07 10.0208092 6.8267039 14.2617364 19.4963207 10.37 30.98z" fill="#fff"/><path id="Shape" d="m52.44 40c.0427453-.0839674.0795035-.1708504.11-.26 0 .09-.06.18-.1.27z" fill="#e8edfc"/><path id="Shape" d="m42 31c.0009863 6.3597385-4.959869 11.6157679-11.3090566 11.9819528-6.3491876.3661848-11.8814151-4.2846636-12.61159-10.6023466-.7301749-6.3176831 3.5953178-12.107851 9.8606466-13.1996062 3.4899792-.6081409 7.070332.356855 9.7819817 2.6364922s4.2774689 5.6409396 4.2780183 9.1835078z" fill="#7facfa"/><path id="Shape" d="m39 31c.0033513 6.0422873-4.4863802 11.1446444-10.48 11.91-3.4808429-.4447663-6.592589-2.3908776-8.5159699-5.3259568-1.9233808-2.9350793-2.4656473-6.5649912-1.4840301-9.9340432 1.49-5.36 6.89-8.55 10-8.55 5.9898415.7648738 10.4783172 5.8615209 10.48 11.9z" fill="#a4c2f7"/><path id="Shape" d="m54.5 0 1.44 2.89 3.06.55-2.17 2.33.45 3.23-2.78-1.45-2.78 1.45.45-3.23-2.17-2.33 3.06-.55z" fill="#e8edfc"/></g><path id="Shape" d="m12.77 56.32-1.33-4c-.1066394-.314183-.050504-.6608011.1498484-.9252663.2003525-.2644652.5188315-.4123381.8501516-.3947337h.68c-17.01-16.07-8.86-43.72 12.88-49.13 1.7669161-.48316969 3.5806855-.77484795 5.41-.87-2.8317882-.16022743-5.6709785.13348191-8.41.87-21.74 5.41-29.89 33.06-12.93 49.13h-.68c-.3313201-.0176044-.64979914.1302685-.85015156.3947337-.20035241.2644652-.2564878.6110833-.14984844.9252663l1.33 4c.14299392.4253709.5518476.7033915 1 .68h3c-.4299159.0011098-.8124279-.2726883-.95-.68z" fill="#fff" transform="translate(0 2)"/><path id="Shape" d="m.7 25.71 2 .42c-.5311314 2.523261-.72948504 5.1052203-.59 7.68l-2 .12c-.16415299-2.7540144.03421088-5.5176603.59-8.22z" fill="#fff"/><g fill="#428dff"><path id="Shape" d="m1.13 30.87c-.55228475 0-1-.4477153-1-1s.44771525-1 1-1 1 .4477153 1 1-.44771525 1-1 1z"/><path id="Shape" d="m16.56 12.1c.4583963-.3092795.5792795-.9316037.27-1.39s-.9316037-.5792795-1.39-.27c-1.6149542 1.0846728-3.1041269 2.345774-4.44 3.76-4.94369095 5.2355526-7.48055509 12.2952831-7 19.48.03177983.5287239.47032275.9409542 1 .94h.06c.26539129-.0154441.51371062-.1359254.69009224-.3348239.17638162-.1988984.26630717-.4598421.24990776-.7251761-.45447433-6.6369694 1.88371088-13.1621375 6.45-18 1.237845-1.3017605 2.6162744-2.4621901 4.11-3.46z"/><path id="Shape" d="m21 9.65c.1224584-.00036115.2440439-.02062539.36-.06 2.7565104-1.06109761 5.686329-1.60026561 8.64-1.59.5522847 0 1-.44771525 1-1s-.4477153-1-1-1c-3.1992493-.00741603-6.3723939.57568318-9.36 1.72-.5071244.19998364-.7606442.76929125-.57 1.28.1451776.38858638.5151891.64719655.93.65z"/><path id="Shape" d="m44.86 8.29c.2410309-.38401261.3367963-.84155843.27-1.29-.0871387-.64026044-.478239-1.19897512-1.05-1.5-10.621466-5.62784089-23.5766949-4.37245875-32.92 3.19-2.63874927 2.1506633-4.90861454 4.7177729-6.72 7.6-1.76756799 2.90732-3.03197822 6.092011-3.74 9.42-.05607411.2613928-.00514914.5343549.14140533.7579444s.37653461.3791878.63859467.4320556c.53464179.1049225 1.05488498-.2374598 1.17-.77.65961359-3.1073228 1.84317291-6.0797475 3.5-8.79 1.68543574-2.6952885 3.80386403-5.0941467 6.27-7.1 8.7166412-7.06768988 20.8110074-8.24839598 30.73-3-.17.16-.36.33-.55.53-1.3663289 1.33701898-2.5742733 2.8268171-3.6 4.44-1.6492003 2.4833397-2.6780367 5.3263575-3 8.29-3.9344199-2.0530612-8.6443332-1.957236-12.4919911.2541547s-6.3014026 6.2327838-6.5080089 10.6658453c-.2937594 6.2635188 3.9253635 11.8441455 10.031741 13.268967 6.1063776 1.4248214 12.3596302-1.7122511 14.868259-7.458967 3.0613949 2.1846115 6.5036806 3.7785763 10.15 4.7h.13c1 .26 1.93.46 2.85.62.2775883.0553692.5580118.0954297.84.12-1.4405133 3.5053099-3.5807945 6.6800036-6.29 9.33h-39.1c-4.97334439-4.8036474-7.97576157-11.289867-8.42-18.19-.0154441-.2653913-.13592544-.5137106-.33482386-.6900922-.19889843-.1763817-.45984217-.2663072-.72517614-.2499078-.26539129.0154441-.51371062.1359254-.69009224.3348239-.17638162.1988984-.26630717.4598421-.24990776.7251761.44685432 6.9287475 3.30146545 13.4833874 8.07 18.53-.14024048.1051804-.26481964.2297595-.37.37-.37362405.5219128-.47405249 1.1914357-.27 1.8l1.33 4c.27168163.8185751 1.03751788 1.3707833 1.9 1.37h38.56c.8624821.0007833 1.6283184-.5514249 1.9-1.37l1.33-4c.2040525-.6085643.103624-1.2780872-.27-1.8-.0968761-.1283781-.2075375-.2457462-.33-.35 2.4633057-2.6272667 4.4346126-5.6756795 5.82-9 .2218746-.5620242.1777672-1.1942299-.12-1.72-.2157663-.4070288-.5706886-.7229096-1-.89.945583-2.8606853 1.4151595-5.8571916 1.39-8.87-.0073757-9.6381011-4.9712156-18.5949234-13.14-23.71zm4.42 49.71h-23.28v-2c0-.5522847-.4477153-1-1-1s-1 .4477153-1 1v2h-3v-2c0-.5522847-.4477153-1-1-1s-1 .4477153-1 1v2h-3v-2c0-.5522847-.4477153-1-1-1s-1 .4477153-1 1v2h-3.28l-1.33-4h41.22zm6.72-26c-.0007634 2.8841814-.4875803 5.7476114-1.44 8.47l-.89-.19c.1303508-1.3332721-.1636246-2.6736601-.84-3.83-1.57-2.36-2.51-6.84-2.77-8.2l1.48-.59c.6982451-.2798103 1.1804361-.9277438 1.2479684-1.6769296.0675322-.7491858-.291017-1.4729043-.9279684-1.8730704l-5-3.13c-.3957507-.2490921-.5660372-.739185-.41-1.18l.06-.2c.3926922-1.1604151.0403719-2.4430191-.89-3.24l-4.42-3.79c.6786326-.9908586 1.4378757-1.9240253 2.27-2.79 7.772793 4.7079875 12.5234679 13.1325683 12.53 22.22zm-13.41 3.24c1.2728742-4.9968754-.5279321-10.273748-4.59-13.45.0662852-2.640086.7916129-5.2217029 2.11-7.51l4.21 3.6c.3247364.2738455.4410265.7229658.29 1.12l-.06.2c-.4360538 1.3147136.0846735 2.7570455 1.26 3.49l5 3.12-3.18 1.27c-.247471.0997768-.4448032.2943172-.5480958.5403415-.1032926.2460242-.1039782.5231262-.0019042.7696585.1564992.3695049.5187198.609673.92.61h.16c.36 1.78 1.34 6.08 3 8.58.3673109.6710667.5566584 1.4250141.55 2.19-3.2969499-.9253162-6.3906407-2.461985-9.12-4.53zm-12.59 7.76c-3.0061147.0031072-5.8825345-1.2241995-7.9604302-3.396545s-3.1762131-5.1004459-3.0395698-8.103455c.3387184-5.7217767 4.9532929-10.2585775 10.68-10.5 2.3676873-.0645198 4.6929611.6369203 6.63 2 3.9278037 2.7488613 5.6229284 7.7250031 4.19 12.3-1.4419059 4.5849717-5.6936449 7.7029136-10.5 7.7z"/><path id="Shape" d="m38 31c-.5522847 0-1 .4477153-1 1 0 3.8659932-3.1340068 7-7 7-.5522847 0-1 .4477153-1 1s.4477153 1 1 1c4.9705627 0 9-4.0294373 9-9 0-.5522847-.4477153-1-1-1z"/><path id="Shape" d="m30 25c.5522847 0 1-.4477153 1-1s-.4477153-1-1-1c-4.9705627 0-9 4.0294373-9 9 0 .5522847.4477153 1 1 1s1-.4477153 1-1c0-3.8659932 3.1340068-7 7-7z"/><path id="Shape" d="m29 28c0 .5522847.4477153 1 1 1 1.6568542 0 3 1.3431458 3 3 0 .5522847.4477153 1 1 1s1-.4477153 1-1c0-2.7614237-2.2385763-5-5-5-.5522847 0-1 .4477153-1 1z"/><path id="Shape" d="m31 36c0-.5522847-.4477153-1-1-1-1.6568542 0-3-1.3431458-3-3 0-.5522847-.4477153-1-1-1s-1 .4477153-1 1c0 2.7614237 2.2385763 5 5 5 .5522847 0 1-.4477153 1-1z"/><path id="Shape" d="m59.18 3.45-2.57-.45-1.22-2.45c-.171096-.33396622-.5147571-.54403948-.89-.54403948s-.718904.21007326-.89.54403948l-1.22 2.45-2.57.46c-.3610246.06518559-.6573712.32282324-.7721306.67127437-.1147593.34845113-.0295048.73176581.2221306.99872563l1.84 2-.38 2.76c-.0405073.3658166.1232066.7243159.4261921.9332714.3029856.2089555.6962627.2345881 1.0238079.0667286l2.32-1.21 2.32 1.21c.1432084.0705207.300381.1081054.46.11.2913558.0028716.5694741-.1214736.7616145-.3405136.1921403-.21904.2791914-.510988.2383855-.7994864l-.39-2.76 1.84-2c.2516354-.26695982.3368899-.6502745.2221306-.99872563-.1147594-.34845113-.411106-.60608878-.7721306-.67127437zm-3.08 2.64c-.2058106.22018527-.3013341.52145177-.26.82l.16 1.31-1-.55c-.2857122-.16032525-.6342878-.16032525-.92 0l-1.08.55.18-1.31c.0413341-.29854823-.0541894-.59981473-.26-.82l-.92-.99 1.25-.23c.3231702-.04675371.6031585-.24834526.75-.54l.55-1.09.55 1.09c.1408609.28393142.4079848.48427433.72.54l1.18.23z"/></g></g></svg>